<svg
    xmlns="http://www.w3.org/2000/svg" width="512" height="512" viewBox="0 0 512 512" style="overflow: visible;">
    <!-- <rect data-uid="o_f4cgccmmi_4" data-fl-background="" x="0" y="0" width="512" height="512" rx="50" fill="#D6EDF3" style="fill-opacity: .25;"></rect> -->
    <path text="DEVELOPMENT" fill="#fff" space="preserve" text-anchor="middle" offset="0.5" font-scale="contain" font-size="48" font-family="Padauk" transform="matrix(0.9293644551644398, 0, 0, 0.9293644551644398, 254.82144743133847, 484.74500446119436)" letter-spacing="10" font-weight="400" font-style="normal" data-fl-textpath="" data-uid="o_f4cgccmmi_5" d="M-179.985-15.09L-179.985-15.09Q-179.985-20.58 -182.79500000000002-23.53Q-185.605-26.48 -190.575-26.48L-190.575-26.48L-195.875-26.48L-195.875-3.66L-190.575-3.66Q-185.655-3.66 -182.825-6.66Q-179.985-9.66 -179.985-15.09ZM-175.815-15.09L-175.815-15.09Q-175.815-12.8 -176.255-10.71Q-176.70499999999998-8.63 -177.785-6.63Q-178.855-4.64 -180.495-3.19Q-182.145-1.73 -184.765-0.87Q-187.395 0 -190.675 0L-190.675 0L-199.995 0L-199.995-30.14L-190.675-30.14Q-186.54500000000002-30.14 -183.575-28.9Q-180.595-27.66 -178.95499999999998-25.48Q-177.315-23.3 -176.565-20.72Q-175.815-18.14 -175.815-15.09ZM-140.965-3.66L-140.965 0L-159.995 0L-159.995-30.14L-141.395-30.14L-141.395-26.48L-155.875-26.48L-155.875-17.2L-141.815-17.2L-141.815-13.64L-155.875-13.64L-155.875-3.66L-140.965-3.66ZM-106.1225-30.14L-101.4325-30.14L-112.1225 0L-116.7625 0L-127.4525-30.14L-122.7225-30.14L-114.4225-5.39L-106.1225-30.14ZM-68.37125-3.66L-68.37125 0L-87.40125 0L-87.40125-30.14L-68.80125-30.14L-68.80125-26.48L-83.28125-26.48L-83.28125-17.2L-69.22125-17.2L-69.22125-13.64L-83.28125-13.64L-83.28125-3.66L-68.37125-3.66ZM-34.60875-3.66L-34.60875 0L-52.08875 0L-52.08875-30.14L-47.96875-30.14L-47.96875-3.66L-34.60875-3.66ZM 2.0593749999999993-15.66L 2.0593749999999993-15.66Q 2.0593749999999993-20.95 -0.020624999999999005-24Q-2.110624999999999-27.05 -7.220624999999998-27.05L-7.220624999999998-27.05Q-16.590625-27.05 -16.590625-15.66L-16.590625-15.66Q-16.590625-13.13 -16.150624999999998-10.99Q-15.700624999999999-8.86 -14.670625-7.03Q-13.640625-5.2 -11.740625-4.15Q-9.840625-3.09 -7.220624999999998-3.09Q-4.590624999999999-3.09 -2.6906250000000007-4.15Q-0.8006250000000001-5.2  0.1893749999999983-7.05Q 1.1693749999999987-8.91  1.6193750000000016-11.02Q 2.0593749999999993-13.13  2.0593749999999993-15.66ZM 6.419374999999999-15.66L 6.419374999999999-15.66Q 6.419374999999999-11.2  4.989374999999999-7.59Q 3.5593749999999993-3.98  0.39937499999999915-1.66Q-2.760625000000001 0.66 -7.220624999999998 0.66Q-11.670625 0.66 -14.840625-1.66Q-18.000625-3.98 -19.480625-7.59Q-20.950625-11.2 -20.950625-15.66L-20.950625-15.66Q-20.950625-22.36 -17.440625-26.53Q-13.920625-30.7 -7.220624999999998-30.7Q-0.510625000000001-30.7  2.949375-26.55Q 6.419374999999999-22.41  6.419374999999999-15.66ZM 38.309375-21.42L 38.309375-21.42Q 38.309375-24.19  36.509375-25.34Q 34.699375-26.48  30.859375-26.48L 30.859375-26.48L 26.359375-26.48L 26.359375-16.45L 30.859375-16.45Q 34.749375-16.45  36.529375-17.58Q 38.309375-18.7  38.309375-21.42ZM 42.339375000000004-21.42L 42.339375000000004-21.42Q 42.339375000000004-18.7  41.379374999999996-16.9Q 40.419375-15.09  38.639375-14.25Q 36.859375-13.41  35.029375-13.1Q 33.199375-12.8  30.719375-12.8L 30.719375-12.8L 26.359375-12.8L 26.359375 0L 22.239375 0L 22.239375-30.14L 30.719375-30.14Q 32.639375-30.14  34.159375-29.98Q 35.689375-29.81  37.279375-29.25Q 38.879374999999996-28.69  39.929375-27.77Q 40.989374999999995-26.86  41.659375-25.24Q 42.339375000000004-23.63  42.339375000000004-21.42ZM 88.955-30.14L 88.955 0L 84.825 0L 84.825-26.16L 75.175 0L 71.895 0L 62.375-25.92L 62.375 0L 58.255 0L 58.255-30.14L 64.855-30.14L 73.575-5.81L 82.345-30.14L 88.955-30.14ZM 124.738125-3.66L 124.738125 0L 105.708125 0L 105.708125-30.14L 124.308125-30.14L 124.308125-26.48L 109.828125-26.48L 109.828125-17.2L 123.888125-17.2L 123.888125-13.64L 109.828125-13.64L 109.828125-3.66L 124.738125-3.66ZM 164.500625-30.14L 164.500625 0L 158.450625 0L 145.140625-24.66L 145.140625 0L 141.020625 0L 141.020625-30.14L 146.920625-30.14L 160.280625-5.39L 160.280625-30.14L 164.500625-30.14ZM 202.53125-30.14L 202.53125-26.48L 192.69125-26.48L 192.69125 0L 188.47125 0L 188.47125-26.48L 178.62125-26.48L 178.62125-30.14L 202.53125-30.14Z"></path>
    <g data-uid="o_f4cgccmmi_16" transform="matrix(2.497428436204357, 0, 0, 2.497428436204357, -383.3416796683153, -267.8729092149236)">
        <path text="C" fill="#062d46" space="preserve" text-anchor="middle" offset="0.5" font-scale="contain" font-size="48" font-family="Muli" transform="matrix(1.003277599811554, 0, 0, 1.003277599811554, 220.49450660651274, 280.6003878066251)" font-weight="400" font-style="normal" stroke="#062d46" stroke-width="6" data-fl-textpath="" data-uid="o_f4cgccmmi_6" d="M 2.404 0.38Q-2.4459999999999997 0.38 -6.026-1.73Q-9.596-3.84 -11.516-7.8Q-13.436-11.76 -13.436-17.14L-13.436-17.14Q-13.436-22.51 -11.516-26.42Q-9.596-30.34 -6.026-32.45Q-2.4459999999999997-34.56  2.404-34.56L 2.404-34.56Q 5.954000000000001-34.56  8.904-33.48Q 11.854-32.4  14.014-30.24L 14.014-30.24L 12.524000000000001-27.22Q 10.084-29.33  7.704000000000001-30.24Q 5.323999999999998-31.15  2.443999999999999-31.15L 2.443999999999999-31.15Q-3.1660000000000004-31.15 -6.266-27.5Q-9.356000000000002-23.86 -9.356000000000002-17.14L-9.356000000000002-17.14Q-9.356000000000002-10.37 -6.286-6.7Q-3.216000000000001-3.02  2.443999999999999-3.02L 2.443999999999999-3.02Q 5.323999999999998-3.02  7.704000000000001-3.94Q 10.084-4.85  12.524000000000001-6.96L 12.524000000000001-6.96L 14.014-3.94Q 11.854-1.78  8.904-0.7Q 5.954000000000001 0.38  2.404 0.38L 2.404 0.38Z"></path>
        <path text="-lab" fill="rgba(6, 45, 70, 1)" space="preserve" text-anchor="middle" offset="0.5" font-scale="contain" font-size="36" font-family="Audiowide" transform="matrix(1, 0, 0, 1, 266.6277201203094, 276.9743739305213)" font-style="normal" font-weight="400" data-uid="o_f4cgccmmi_13" data-fl-textpath="" d="M-21.58328125-14.66L-21.58328125-10.55L-38.07328125-10.55L-38.07328125-14.66L-21.58328125-14.66ZM-9.056875-4.57L-9.056875 0L-11.086875 0Q-12.076875000000001 0 -13.196875-0.33Q-14.306875-0.67 -15.276875-1.43Q-16.246875-2.2 -16.876875-3.42Q-17.506875-4.64 -17.506875-6.42L-17.506875-6.42L-17.506875-27.04L-12.936875-27.04L-12.936875-6.42Q-12.936875-5.57 -12.406875-5.07Q-11.886875-4.57 -11.086875-4.57L-11.086875-4.57L-9.056875-4.57ZM 13.498281250000002-12.71L 13.498281250000002-6.29Q 13.498281250000002-5.34  13.16828125-4.25Q 12.82828125-3.15  12.088281250000001-2.21Q 11.338281250000001-1.27  10.138281249999999-0.63Q 8.928281250000001 0  7.208281250000001 0L 7.208281250000001 0L-1.0417187500000002 0Q-1.9817187499999998 0 -3.0817187500000003-0.33Q-4.18171875-0.67 -5.121718749999999-1.42Q-6.06171875-2.16 -6.7017187499999995-3.37Q-7.33171875-4.57 -7.33171875-6.29L-7.33171875-6.29Q-7.33171875-7.24 -6.99171875-8.35Q-6.66171875-9.46 -5.91171875-10.4Q-5.17171875-11.34 -3.96171875-11.97Q-2.76171875-12.6 -1.0417187500000002-12.6L-1.0417187500000002-12.6L 7.208281250000001-12.6L 7.208281250000001-8.24L-1.0417187500000002-8.24Q-1.97171875-8.24 -2.4817187499999998-7.67Q-2.9917187500000004-7.1 -2.9917187500000004-6.26L-2.9917187500000004-6.26Q-2.9917187500000004-5.36 -2.4017187499999997-4.86Q-1.8117187499999998-4.36 -1.0017187500000002-4.36L-1.0017187500000002-4.36L 7.208281250000001-4.36Q 8.138281249999999-4.36  8.64828125-4.92Q 9.158281250000002-5.48  9.158281250000002-6.33L 9.158281250000002-6.33L 9.158281250000002-12.71Q 9.158281250000002-13.61  8.608281250000001-14.13Q 8.048281249999999-14.66  7.208281250000001-14.66L 7.208281250000001-14.66L-2.8317187500000003-14.66L-2.8317187500000003-19L 7.208281250000001-19Q 8.158281250000002-19  9.25828125-18.67Q 10.358281250000001-18.33  11.298281249999999-17.59Q 12.23828125-16.84  12.868281249999999-15.64Q 13.498281250000002-14.43  13.498281250000002-12.71L 13.498281250000002-12.71ZM 38.3578125-12.6L 38.3578125-6.42Q 38.3578125-5.77  38.2078125-5.04Q 38.0578125-4.32  37.737812500000004-3.61Q 37.4278125-2.9  36.9278125-2.25Q 36.4178125-1.6  35.7078125-1.1Q 34.997812499999995-0.6  34.0678125-0.3Q 33.137812499999995 0  31.9578125 0L 31.9578125 0L 23.7178125 0Q 23.0578125 0  22.3378125-0.15Q 21.6178125-0.3  20.9078125-0.62Q 20.1978125-0.93  19.5478125-1.43Q 18.8978125-1.93  18.3978125-2.65Q 17.8978125-3.36  17.5978125-4.3Q 17.2978125-5.24  17.2978125-6.42L 17.2978125-6.42L 17.2978125-27.04L 21.8678125-27.04L 21.8678125-6.42Q 21.8678125-5.57  22.3978125-5.07Q 22.9178125-4.57  23.7178125-4.57L 23.7178125-4.57L 31.9578125-4.57Q 32.8178125-4.57  33.2978125-5.08Q 33.7878125-5.59  33.7878125-6.42L 33.7878125-6.42L 33.7878125-12.6Q 33.7878125-13.46  33.277812499999996-13.95Q 32.767812500000005-14.43  31.9578125-14.43L 31.9578125-14.43L 23.7178125-14.43L 23.7178125-19L 31.9578125-19Q 32.6078125-19  33.3278125-18.85Q 34.0478125-18.7  34.7578125-18.39Q 35.4678125-18.07  36.127812500000005-17.57Q 36.777812499999996-17.07  37.267812500000005-16.36Q 37.7578125-15.64  38.0578125-14.71Q 38.3578125-13.78  38.3578125-12.6L 38.3578125-12.6Z"></path>
    </g>
    <!-- <g transform="matrix(0.4691841980292368, 0, 0, 0.4691841980292368, 95.75606829937058, 27.265972249257985)" data-uid="o_f4cgccmmi_217">
        <path d="M 222.15625 0 L 0.5 128 L 0.5 383.996094 L 222.15625 512 L 443.808594 383.996094 L 443.808594 128 Z M 222.15625 0 " fill-rule="nonzero" fill="rgb(20%,45.098039%,61.960784%)" fill-opacity="1" transform="matrix(1.330729192657471, 0, 0, 1.330729192657471, 45.91015049303683, -1.330729192657471)" data-uid="o_f4cgccmmi_211"></path>
        <path d="M 222.15625 0 L 222.15625 512 L 443.808594 383.996094 L 443.808594 128 Z M 222.15625 0 " fill-rule="nonzero" fill="rgb(15.294118%,36.078431%,49.803922%)" fill-opacity="1" transform="matrix(1.330729192657471, 0, 0, 1.330729192657471, 45.91015049303683, -1.330729192657471)" data-uid="o_f4cgccmmi_212"></path>
        <path d="M 115.335938 317.578125 L 53.757812 256 L 115.335938 194.417969 L 136.566406 215.648438 L 96.210938 256 L 136.566406 296.351562 Z M 115.335938 317.578125 " fill-rule="nonzero" fill="rgb(32.941176%,72.941176%,98.823529%)" fill-opacity="1" transform="matrix(1.330729192657471, 0, 0, 1.330729192657471, 45.91015049303683, -1.330729192657471)" data-uid="o_f4cgccmmi_213"></path>
        <path d="M 328.972656 317.578125 L 307.746094 296.351562 L 348.097656 256 L 307.746094 215.648438 L 328.972656 194.417969 L 390.554688 256 Z M 328.972656 317.578125 " fill-rule="nonzero" fill="rgb(29.019608%,63.921569%,87.058824%)" fill-opacity="1" transform="matrix(1.330729192657471, 0, 0, 1.330729192657471, 45.91015049303683, -1.330729192657471)" data-uid="o_f4cgccmmi_214"></path>
        <path d="M 244.058594 178.617188 L 270.90625 192.039062 L 200.246094 333.363281 L 173.394531 319.9375 Z M 244.058594 178.617188 " fill-rule="nonzero" fill="rgb(32.941176%,72.941176%,98.823529%)" fill-opacity="1" transform="matrix(1.330729192657471, 0, 0, 1.330729192657471, 45.91015049303683, -1.330729192657471)" data-uid="o_f4cgccmmi_215"></path>
    </g> -->
</svg>